<svg version="1.2" xmlns="http://www.w3.org/2000/svg" viewBox="0 0 120 60" width="120" height="60">
	<title>microsoft_powerbi-ar21-svg</title>
	<style>
		.s0 { fill: #ffffff } 
	</style>
	<path fill-rule="evenodd" class="s0" d="m8.8 40.5c-1.1 0-2-0.9-2-2v-5.7c0-1.1 0.9-2 2-2q0.4 0 0.8 0.2 0.3 0.1 0.6 0.4 0.3 0.3 0.5 0.7 0.1 0.3 0.1 0.7v5.7c0 1.1-0.9 2-2 2zm30-19.1c1.2 0.4 2.2 1.6 2.2 2.8v18.1q0 0.3-0.2 0.7-0.1 0.3-0.4 0.6-0.2 0.3-0.6 0.4-0.4 0.2-0.7 0.1-0.1 0-0.2 0-0.1 0-0.2 0-0.1 0-0.2 0-0.1 0-0.2-0.1l-6-1.8v-1.6l6.5 1.9q0 0 0.1 0 0 0.1 0 0.1 0.1 0 0.1 0 0 0 0.1 0c0.3 0 0.3-0.2 0.3-0.3v-18.1c0-0.4-0.4-1.1-1-1.2l-28.2-8.5q0 0-0.1 0 0 0 0 0-0.1 0-0.1 0 0 0-0.1 0c-0.3 0-0.3 0.2-0.3 0.3v14.1q-0.1-0.1-0.2-0.1-0.1 0-0.2 0-0.1 0-0.2 0-0.1 0-0.2 0-0.1 0-0.2 0-0.1 0-0.2 0-0.1 0-0.2 0-0.1 0-0.2 0.1v-14.1c0-1.4 1.3-2.2 2.6-1.8l28.2 8.4zm-17 23.5c-1.1 0-2-0.9-2-2.1v-14.3c0-1.1 0.9-2 2-2 1.1 0 2 0.9 2 2v14.3c0 1.2-0.9 2.1-2 2.1zm-6.5-2.2c-1.1 0-2-0.9-2-2v-10c0-1.2 0.9-2.1 2-2.1 1.1 0 2 0.9 2 2.1v10c0 1.1-0.9 2-2 2zm13 4.4c-1.1 0-2-0.9-2-2v-18.8c0-1.1 0.9-2 2-2 1.1 0 2 0.9 2 2v18.8c0 1.1-0.9 2-2 2z"/>
	<path fill-rule="evenodd" class="s0" d="m50.3 31.4v4.8h-1.4v-12.6h3.4q2 0 3.1 1 1.1 1 1.1 2.8 0 1.8-1.2 2.9-1.2 1.1-3.3 1.1c0 0-1.7 0-1.7 0zm0-6.4v5.1h1.6q1.5 0 2.3-0.7 0.8-0.7 0.8-2 0-2.4-2.9-2.4zm11.6 11.4q-2 0-3.1-1.3-1.2-1.2-1.2-3.3 0-2.3 1.2-3.5 1.2-1.3 3.3-1.3 2 0 3.1 1.2 1.2 1.3 1.2 3.4 0 2.2-1.3 3.5-1.2 1.2-3.2 1.2zm0.1-8.1q-1.4 0-2.2 0.9-0.8 1-0.8 2.6 0 1.6 0.8 2.5 0.8 0.9 2.2 0.9 1.4 0 2.1-0.9 0.8-0.9 0.8-2.5 0-1.7-0.8-2.6-0.7-0.9-2.1-0.9zm17.6-1l-2.6 8.9h-1.5l-1.9-6.4q-0.1-0.3-0.1-0.8 0 0.1-0.1 0.2 0 0.1 0 0.2 0 0.1-0.1 0.2 0 0.1 0 0.2l-2 6.4h-1.4l-2.7-8.9h1.5l1.8 6.7q0.1 0.3 0.1 0.8h0.1q0-0.1 0-0.2 0-0.1 0.1-0.2 0-0.1 0-0.2 0-0.1 0.1-0.2l2-6.7h1.3l1.9 6.7q0.1 0.3 0.1 0.8h0.1q0-0.3 0.1-0.8l1.8-6.7h1.4zm8.6 4.8h-6.3q0.1 1.5 0.8 2.3 0.8 0.8 2.1 0.8 1.5 0 2.8-1v1.3q-1.2 0.9-3.1 0.9-1.9 0-3-1.2-1.1-1.2-1.1-3.4 0-2.1 1.2-3.4 1.2-1.3 2.9-1.3 1.8 0 2.7 1.1 1 1.1 1 3.1v0.8zm-1.5-1.2q0-1.3-0.6-2-0.5-0.6-1.6-0.7-0.2 0-0.5 0.1-0.2 0-0.4 0.1-0.3 0.1-0.4 0.3-0.2 0.1-0.4 0.3-0.7 0.7-0.9 1.9zm8.2-2.2q-0.4-0.3-1.1-0.3-0.9 0-1.5 0.9-0.6 0.8-0.6 2.3v4.6h-1.4v-8.9h1.4v1.8q0.3-0.9 1-1.5 0.6-0.5 1.4-0.5 0.5 0 0.8 0.1c0 0 0 1.5 0 1.5zm6.7 7.5v-12.5h3.5q1.6 0 2.6 0.8 0.9 0.8 0.9 2 0 1.1-0.5 1.9-0.6 0.8-1.6 1.1 1.2 0.2 2 1 0.8 0.8 0.8 2.1 0 1.6-1.2 2.6-1.1 1-2.9 1zm1.5-11.2v4h1.5q1.2 0 1.9-0.5 0.7-0.6 0.7-1.7 0-1.8-2.4-1.8zm0 5.4v4.5h2q1.2-0.1 2-0.6 0.7-0.7 0.7-1.7 0-2.2-3.1-2.2zm10.1 5.8h-1.5v-12.5h1.5z"/>
</svg>